HIERARCHY
ROOT Hips
{
	OFFSET 0.00000 0.00000 0.00000
	CHANNELS 6 Xposition Yposition Zposition Zrotation Yrotation Xrotation 
	JOINT LHipJoint
	{
		OFFSET 0 0 0
		CHANNELS 3 Zrotation Yrotation Xrotation
		JOINT LeftUpLeg
		{
			OFFSET 1.43652 -1.81092 0.91346
			CHANNELS 3 Zrotation Yrotation Xrotation
			JOINT LeftLeg
			{
				OFFSET 2.45984 -6.75837 0.00000
				CHANNELS 3 Zrotation Yrotation Xrotation
				JOINT LeftFoot
				{
					OFFSET 2.63718 -7.24559 0.00000
					CHANNELS 3 Zrotation Yrotation Xrotation
					JOINT LeftToeBase
					{
						OFFSET 0.19690 -0.54098 2.12239
						CHANNELS 3 Zrotation Yrotation Xrotation
						End Site
						{
							OFFSET 0.00000 -0.00000 1.10116
						}
					}
				}
			}
		}
	}
	JOINT RHipJoint
	{
		OFFSET 0 0 0
		CHANNELS 3 Zrotation Yrotation Xrotation
		JOINT RightUpLeg
		{
			OFFSET -1.35116 -1.81092 0.91345
			CHANNELS 3 Zrotation Yrotation Xrotation
			JOINT RightLeg
			{
				OFFSET -2.55576 -7.02189 0.00000
				CHANNELS 3 Zrotation Yrotation Xrotation
				JOINT RightFoot
				{
					OFFSET -2.61938 -7.19669 0.00000
					CHANNELS 3 Zrotation Yrotation Xrotation
					JOINT RightToeBase
					{
						OFFSET -0.32509 -0.89318 2.23646
						CHANNELS 3 Zrotation Yrotation Xrotation
						End Site
						{
							OFFSET -0.00000 -0.00000 1.19625
						}
					}
				}
			}
		}
	}
	JOINT LowerBack
	{
		OFFSET 0 0 0
		CHANNELS 3 Zrotation Yrotation Xrotation
		JOINT Spine
		{
			OFFSET 0.05193 2.08077 -0.11958
			CHANNELS 3 Zrotation Yrotation Xrotation
			JOINT Spine1
			{
				OFFSET 0.04960 2.08447 0.01967
				CHANNELS 3 Zrotation Yrotation Xrotation
				JOINT Neck
				{
					OFFSET 0 0 0
					CHANNELS 3 Zrotation Yrotation Xrotation
					JOINT Neck1
					{
						OFFSET -0.10699 1.82066 0.27584
						CHANNELS 3 Zrotation Yrotation Xrotation
						JOINT Head
						{
							OFFSET 0.14949 1.84747 -0.32279
							CHANNELS 3 Zrotation Yrotation Xrotation
							End Site
							{
								OFFSET 0.04969 1.88916 -0.14562
							}
						}
					}
				}
				JOINT LeftShoulder
				{
					OFFSET 0 0 0
					CHANNELS 3 Zrotation Yrotation Xrotation
					JOINT LeftArm
					{
						OFFSET 3.73629 1.27211 -0.12847
						CHANNELS 3 Zrotation Yrotation Xrotation
						JOINT LeftForeArm
						{
							OFFSET 5.10995 -0.00000 0.00000
							CHANNELS 3 Zrotation Yrotation Xrotation
							JOINT LeftHand
							{
								OFFSET 3.21207 -0.00000 0.00000
								CHANNELS 3 Zrotation Yrotation Xrotation
								JOINT LeftFingerBase
								{
									OFFSET 0 0 0
									CHANNELS 3 Zrotation Yrotation Xrotation
									JOINT LeftHandIndex1
									{
										OFFSET 0.63349 -0.00000 0.00000
										CHANNELS 3 Zrotation Yrotation Xrotation
										End Site
										{
											OFFSET 0.51074 -0.00000 0.00000
										}
									}
								}
								JOINT LThumb
								{
									OFFSET 0 0 0
									CHANNELS 3 Zrotation Yrotation Xrotation
									End Site
									{
										OFFSET 0.51853 -0.00000 0.51853
									}
								}
							}
						}
					}
				}
				JOINT RightShoulder
				{
					OFFSET 0 0 0
					CHANNELS 3 Zrotation Yrotation Xrotation
					JOINT RightArm
					{
						OFFSET -3.70251 1.29541 -0.35354
						CHANNELS 3 Zrotation Yrotation Xrotation
						JOINT RightForeArm
						{
							OFFSET -5.25109 -0.00000 0.00000
							CHANNELS 3 Zrotation Yrotation Xrotation
							JOINT RightHand
							{
								OFFSET -3.28364 -0.00000 0.00000
								CHANNELS 3 Zrotation Yrotation Xrotation
								JOINT RightFingerBase
								{
									OFFSET 0 0 0
									CHANNELS 3 Zrotation Yrotation Xrotation
									JOINT RightHandIndex1
									{
										OFFSET -0.59974 -0.00000 0.00000
										CHANNELS 3 Zrotation Yrotation Xrotation
										End Site
										{
											OFFSET -0.48353 -0.00000 0.00000
										}
									}
								}
								JOINT RThumb
								{
									OFFSET 0 0 0
									CHANNELS 3 Zrotation Yrotation Xrotation
									End Site
									{
										OFFSET -0.49091 -0.00000 0.49091
									}
								}
							}
						}
					}
				}
			}
		}
	}
}
MOTION
Frames: 14
Frame Time: 0.04
0.00 0.00 0.00 -3.5398 -10.7735 8.0437 0.0000 0.0000 0.0000 -13.5217 -8.9749 -17.4592 1.4526 7.6182 21.5604 0.0882 -5.6812 -6.1822 0.0347 -1.2029 -3.3072 0.0000 0.0000 0.0000 18.4024 -8.6607 -9.5808 -1.1904 -6.9234 19.4886 0.0850 -18.2399 -25.0961 -0.0368 -1.2377 3.4029 -2.9808 2.8019 1.5994 -0.4296 3.6015 -4.0767 0.9938 1.8994 -5.2728 -12.8876 -8.2339 -13.1510 12.8334 -10.6087 11.0403 5.1248 -4.7496 6.9257 0.0000 0.0000 0.0000 -116.0959 -70.9908 72.5062 91.5187 -59.9913 -61.3152 -0.0000 0.0000 -48.3180 17.7049 22.5958 6.9929 -7.1250 0.0000 -0.0000 -11.7150 53.1993 -2.3887 0.0000 0.0000 0.0000 94.3717 84.2346 71.9342 -66.1305 57.7337 -39.4856 0.0000 0.0000 20.8238 -46.8267 19.8668 -19.9117 7.1250 -0.0000 -0.0000 -11.3566 -2.6092 -11.0500
0.00 0.00 0.00 -3.4926 -10.6362 7.7140 0.0000 0.0000 0.0000 -13.5970 -9.0463 -17.1914 1.4951 7.7239 21.8786 0.0993 -5.7170 -6.4326 0.0381 -1.2598 -3.4640 0.0000 0.0000 0.0000 18.3409 -8.8459 -9.4096 -1.2359 -7.0499 19.8633 0.0732 -18.3047 -25.2921 -0.0329 -1.1705 3.2179 -2.6627 3.1211 1.5401 -0.6327 4.0309 -4.3147 0.5732 2.0983 -5.4692 -13.1580 -8.6003 -11.6945 13.6308 -11.3368 10.7081 5.3796 -5.1160 6.7363 -0.0000 0.0000 0.0000 -113.9373 -72.1430 68.3336 96.7705 -59.8261 -65.8600 -0.0000 0.0000 -51.1264 20.2596 24.2184 8.6100 -7.1250 0.0000 -0.0000 -9.8061 55.3275 -2.5037 -0.0000 0.0000 0.0000 121.1487 85.0331 100.0191 -63.4867 57.1697 -37.2570 0.0000 0.0000 25.8008 -50.2101 20.7004 -22.9971 7.1250 -0.0000 -0.0000 -13.1048 -0.1113 -13.4358
0.00 0.00 0.00 -3.3176 -7.0976 7.1338 0.0000 0.0000 0.0000 -13.7602 -10.3062 -16.8836 1.5143 7.7712 22.0212 0.0369 -7.5879 -6.0934 0.0134 -0.7482 -2.0563 0.0000 0.0000 0.0000 18.6189 -10.4644 -8.3437 -1.1528 -6.8172 19.1749 0.1897 -19.7622 -26.4313 -0.0433 -1.3436 3.6948 -1.7535 3.9273 0.4642 -0.6751 5.1767 -3.9270 0.0543 2.6278 -4.4017 -14.2724 -10.6960 -9.7029 15.5703 -14.5578 10.1417 5.8232 -6.6726 6.9149 -0.0000 0.0000 0.0000 -94.3692 -64.6761 47.4010 113.7453 -57.7585 -80.4092 -0.0000 0.0000 -54.9353 33.1340 31.3747 18.7696 -7.1250 0.0000 -0.0000 2.1077 66.0307 1.0699 -0.0000 0.0000 0.0000 117.0904 83.7128 105.3668 -62.7665 57.0032 -36.6524 0.0000 0.0000 22.6668 -47.6901 20.2663 -20.8338 7.1250 -0.0000 -0.0000 -11.7642 -1.7549 -11.6490
0.00 0.00 0.00 -2.9997 -4.6827 8.0483 0.0000 0.0000 0.0000 -14.0939 -11.5236 -18.3831 1.4128 7.5176 21.2583 -0.0850 -8.8907 -4.4717 0.0012 -0.2229 -0.6124 0.0000 0.0000 0.0000 18.6161 -10.4929 -9.4138 -1.0813 -6.6094 18.5632 0.4497 -21.2698 -26.6029 -0.0453 -1.3742 3.7790 -1.2652 4.4039 1.2744 -0.7053 5.8206 -3.2502 -0.3065 2.9278 -4.1136 -14.5650 -11.6456 -10.0264 14.9091 -15.5539 9.1895 5.4863 -7.1981 6.7864 -0.0000 -0.0000 0.0000 -82.3261 -35.6152 44.4709 118.6119 -56.6686 -84.5015 -0.0000 0.0000 -50.0079 39.7099 26.5265 20.3505 -7.1250 0.0000 -0.0000 12.3455 62.5422 5.3052 -0.0000 -0.0000 0.0000 86.6513 64.4730 87.7394 -67.5394 58.0053 -40.6788 0.0000 0.0000 17.7720 -40.7951 18.5103 -15.3225 7.1250 -0.0000 -0.0000 -8.0223 -6.3182 -7.1630
0.00 0.00 0.00 -3.1523 -8.6212 10.6759 0.0000 0.0000 0.0000 -16.5061 -10.3294 -21.1296 1.4397 7.5858 21.4629 -0.0473 -7.9842 -4.5403 0.0259 1.0390 2.8560 0.0000 0.0000 0.0000 15.8767 -7.5698 -11.1613 -0.9284 -6.1383 17.1862 0.7774 -21.5693 -24.1724 -0.0431 -1.3398 3.6842 -1.9916 3.6607 3.2186 0.1368 4.7979 -1.9364 0.9282 2.4419 -3.9734 -13.2096 -9.9299 -12.6263 10.0921 -12.2950 8.6783 4.0817 -5.7914 6.1340 0.0000 -0.0000 0.0000 -87.0371 -4.7324 52.2778 107.5585 -58.8024 -75.1450 -0.0000 0.0000 -71.5256 40.3000 24.1763 19.1532 -7.1250 0.0000 -0.0000 13.1531 59.9791 4.8583 0.0000 -0.0000 0.0000 78.6223 32.0739 82.7344 -67.5499 58.0072 -40.6877 0.0000 0.0000 16.0980 -45.9789 26.8197 -25.0265 7.1250 -0.0000 -0.0000 -9.1218 5.6515 -10.0991
0.00 0.00 0.00 -3.6193 -18.6352 11.0675 0.0000 0.0000 0.0000 -19.4362 -6.6089 -23.9109 1.5950 7.9661 22.6111 0.0787 -2.3129 -5.0011 0.0424 1.3297 3.6564 0.0000 0.0000 0.0000 15.0215 -9.6099 -22.3317 -3.2345 -11.0652 32.5002 -0.3332 -15.3290 -24.8683 -0.2459 -3.1913 8.8117 -1.5429 3.6688 5.8447 2.4016 4.8799 -0.6823 2.8762 2.4885 -4.3203 -11.5182 -6.8419 -12.0806 6.9373 -8.1544 11.0764 3.3055 -3.9616 6.0970 0.0000 0.0000 0.0000 -87.0952 -13.4675 53.0261 86.0491 -59.9409 -56.5791 -0.0000 0.0000 -52.9642 31.6020 34.0712 19.0180 -7.1250 0.0000 -0.0000 -1.5590 68.4259 -0.8766 0.0000 0.0000 0.0000 85.7348 17.2433 54.2228 -88.8417 59.9949 -58.9969 0.0000 -0.0000 -53.0356 -13.4628 -8.0281 1.9149 7.1250 -0.0000 -0.0000 11.4459 -37.9994 2.0043
0.00 0.00 0.00 1.0333 -61.1948 8.7197 0.0000 0.0000 0.0000 -11.2522 -8.7806 -20.4844 0.7474 5.5223 15.4044 -0.0023 1.0152 -0.9637 0.0103 0.6542 1.7977 0.0000 0.0000 0.0000 21.5190 5.6584 -23.1552 -2.9008 -10.5328 30.7199 -0.8854 -3.8526 -19.5699 -0.3898 -4.0090 11.1020 2.3349 1.7313 9.2338 4.3085 2.5946 1.9012 2.8543 1.2434 -3.2973 -3.2075 4.7999 -14.7002 -4.8658 7.6440 8.5517 -0.3560 3.2772 5.0473 -0.0000 0.0000 0.0000 -97.9128 -24.8414 71.5588 61.3121 -56.6496 -35.4350 -0.0000 0.0000 -47.3354 27.2506 25.9964 12.7214 -7.1250 0.0000 -0.0000 -2.9748 58.7014 -0.9970 -0.0000 0.0000 0.0000 81.3435 11.3728 48.7928 -87.4722 59.9758 -57.8111 0.0000 -0.0000 -37.1379 -23.6547 10.0607 -4.3757 7.1250 -0.0000 -0.0000 2.3802 -19.0229 1.4756
0.00 0.00 0.00 9.5544 -61.6087 0.0346 0.0000 0.0000 0.0000 -16.2614 -6.4971 -22.6915 1.3995 7.4836 21.1564 0.0081 -1.9472 3.3854 0.1054 -2.0930 -5.7627 0.0000 0.0000 0.0000 16.6760 6.3165 -19.7926 -2.8086 -10.3786 30.2116 -0.9350 -5.0243 -20.7476 -0.3090 -3.5740 9.8811 6.3078 1.1250 9.7419 6.3615 2.1374 2.5495 2.8388 0.9556 -2.8118 -2.5602 5.9353 -16.4710 -7.8437 9.7797 11.3514 -1.0869 3.9315 6.4545 0.0000 -0.0000 0.0000 -96.8651 -33.7937 66.4265 48.9068 -52.5450 -25.3037 -0.0000 0.0000 -34.6723 21.3517 23.2031 8.7559 -7.1250 0.0000 -0.0000 -8.2582 54.5049 -1.9385 0.0000 -0.0000 0.0000 81.3211 17.1955 26.6237 -81.8727 59.7489 -52.9675 0.0000 -0.0000 -42.7382 -37.0610 13.2311 -9.8070 7.1250 -0.0000 -0.0000 -6.5601 -13.6405 -4.8606
0.00 0.00 0.00 10.4904 -59.2584 0.6025 0.0000 0.0000 0.0000 -17.3250 -5.5086 -25.4198 1.3535 7.3647 20.8003 -0.0001 0.2216 0.1013 0.0756 -1.7740 -4.8815 0.0000 0.0000 0.0000 14.3767 4.6381 -22.1090 -2.9637 -10.6361 31.0622 -0.9188 -5.5411 -20.9297 -0.1811 -2.7409 7.5583 7.3451 0.9963 11.4074 7.5278 2.2365 2.7772 3.4692 0.9633 -3.4978 -3.3633 5.2460 -16.8708 -8.0289 9.0428 10.9784 -1.0945 3.5318 6.3603 0.0000 0.0000 0.0000 -81.8405 -29.6237 43.2767 48.2747 -52.2755 -24.8029 -0.0000 0.0000 -34.6457 20.1150 22.0227 7.8196 -7.1250 0.0000 -0.0000 -9.0697 53.0581 -1.8098 0.0000 0.0000 0.0000 69.6263 22.7349 1.5068 -93.0151 59.9656 -62.6109 0.0000 -0.0000 -38.0438 -46.8967 18.4468 -18.6804 7.1250 -0.0000 -0.0000 -11.7345 -4.4200 -11.0338
0.00 0.00 0.00 11.1009 -55.4284 2.3007 0.0000 0.0000 0.0000 -17.9628 -5.1655 -24.2884 0.4571 4.3370 12.0267 -0.1667 10.6112 4.4227 0.0018 0.2714 0.7458 0.0000 0.0000 0.0000 11.0824 2.0594 -24.1276 -3.0509 -10.7771 31.5316 -0.8790 -7.3254 -21.8256 -0.0336 -1.1838 3.2548 8.3713 0.5888 11.8975 8.3694 1.9069 2.6773 3.8512 0.7734 -3.8640 -3.5694 4.8102 -16.2391 -8.8497 8.5178 10.3857 -1.3956 3.2496 6.0894 0.0000 -0.0000 0.0000 -72.5307 -15.3367 23.8124 41.7957 -49.0985 -19.7860 -0.0000 0.0000 -30.9936 20.0589 20.0030 7.1195 -7.1250 0.0000 -0.0000 -8.4244 50.9725 -1.2472 0.0000 -0.0000 0.0000 56.9496 30.0024 -23.2440 -106.8293 58.9023 -74.5208 0.0000 -0.0000 -30.4896 -53.0764 22.6104 -27.0951 7.1250 -0.0000 -0.0000 -14.1962 3.8213 -15.5836
0.00 0.00 0.00 3.5263 -23.7334 5.6961 0.0000 0.0000 0.0000 -23.9697 -8.1363 -21.0290 0.7578 5.5597 15.5120 -0.6969 -14.5974 5.1414 0.1370 2.3855 6.5722 0.0000 0.0000 0.0000 11.8970 -9.8656 -12.6500 -3.4387 -11.3735 33.5500 -0.3197 -20.5826 -31.2771 -0.0113 0.6857 -1.8844 9.9990 2.3172 6.5723 10.3286 4.2941 -1.2502 4.8894 1.9338 -5.1349 -11.7821 -6.2034 -12.8244 -0.3227 -6.1772 10.8587 1.2128 -3.5416 5.7595 -0.0000 0.0000 0.0000 -87.3653 -0.9751 32.8222 38.5111 -47.1626 -17.3394 -0.0000 0.0000 -31.2131 22.8392 19.2411 7.9017 -7.1250 0.0000 -0.0000 -5.4585 50.6439 -0.7611 -0.0000 0.0000 0.0000 71.6095 50.2563 -18.6935 -91.3266 59.9934 -61.1489 0.0000 -0.0000 -39.7950 -55.0985 15.4065 -20.8469 7.1250 -0.0000 -0.0000 -17.2901 -5.2128 -16.4311
0.00 0.00 0.00 2.9495 -21.4124 6.0091 0.0000 0.0000 0.0000 -24.2714 -7.5901 -21.3628 0.8181 5.7714 16.1226 -0.9512 -16.9789 5.5287 0.2208 3.0252 8.3488 0.0000 0.0000 0.0000 12.5070 -10.0767 -11.3378 -3.2394 -11.0728 32.5258 -0.1121 -21.9312 -31.6745 -0.0000 0.0323 -0.0887 10.2441 3.5342 6.5148 9.9496 5.9481 -1.4260 4.1739 2.7348 -5.2489 -13.3018 -7.9485 -11.4681 1.4463 -8.7073 9.3303 1.8107 -4.6603 5.3332 -0.0000 -0.0000 0.0000 -88.0945 -1.5957 35.6487 39.1717 -47.5714 -17.8254 -0.0000 0.0000 -30.3618 21.6574 18.1174 7.0393 -7.1250 0.0000 -0.0000 -6.3140 49.2699 -0.6672 -0.0000 -0.0000 0.0000 69.5033 56.1061 -17.2589 -65.3455 57.5738 -38.8225 0.0000 -0.0000 -48.4852 -46.1962 9.2296 -9.4938 7.1250 -0.0000 -0.0000 -13.3483 -16.9833 -9.1199
0.00 0.00 0.00 2.4760 -17.9690 7.1200 0.0000 0.0000 0.0000 -24.8118 -8.4717 -22.1594 0.9278 6.1361 17.1799 -1.2375 -19.2831 5.7824 0.3988 4.0543 11.2296 0.0000 0.0000 0.0000 13.1277 -11.2815 -10.1766 -2.8105 -10.3817 30.2220 0.0724 -23.2060 -32.2290 -0.0255 -1.0302 2.8320 10.4423 5.6874 7.0514 8.6940 8.9576 -1.9386 2.3653 4.1584 -5.8716 -14.8079 -10.3065 -9.4249 4.4646 -12.2790 6.2283 2.7467 -6.2080 4.5569 0.0000 0.0000 0.0000 -88.3855 -1.7843 38.6319 41.7094 -49.0507 -19.7208 -0.0000 0.0000 -28.7082 19.4728 16.4899 5.7312 -7.1250 0.0000 -0.0000 -7.9723 47.2518 -0.4457 0.0000 0.0000 0.0000 51.7430 68.7249 -33.8901 -23.2913 34.4058 -7.3022 0.0000 -0.0000 -61.1984 -21.0502 -6.4753 2.4853 7.1250 -0.0000 -0.0000 4.8262 -36.8762 0.9673
0.00 0.00 0.00 -1.7030 -14.6377 14.2578 0.0000 0.0000 0.0000 -18.8135 -12.6729 -23.4377 0.8804 5.9816 16.7310 -1.3077 -20.0526 3.7947 0.6831 5.2843 14.7214 0.0000 0.0000 0.0000 18.5614 -12.7495 -11.2749 -2.1090 -9.0895 26.0758 0.9881 -24.2287 -27.2389 -0.1058 2.0977 -5.7758 2.4895 5.8550 5.0236 2.9558 8.1259 -1.8997 0.9348 3.9971 -4.8621 -16.1101 -11.8102 -9.5848 10.8438 -14.7021 5.6503 4.6110 -7.0877 5.2374 -0.0000 -0.0000 0.0000 -86.6831 3.7534 36.8651 38.2393 -46.9915 -17.1404 -0.0000 0.0000 -24.8790 22.3629 13.2411 5.3833 -7.1250 0.0000 -0.0000 -4.5988 44.2067 0.0902 -0.0000 -0.0000 0.0000 87.7849 45.8295 6.2907 -11.8812 19.6263 -2.0622 0.0000 -0.0000 -33.7990 -21.9369 -8.1241 3.2575 7.1250 -0.0000 -0.0000 4.2511 -38.6960 0.6616
